<svg aria-hidden="true" style="position:absolute;width:0;height:0;overflow:hidden" xmlns="http://www.w3.org/2000/svg">
  <defs>
    <svg width="64" height="64" viewBox="0 0 64 64" fill="none" xmlns="http://www.w3.org/2000/svg" id="slider-arrow-1">
      <rect x="2" y="2" width="60" height="60" rx="7" fill="#AAAAAA" fill-opacity="0.05" />
      <rect x="2" y="2" width="60" height="60" rx="7" stroke="#808080" stroke-width="4" />
      <path d="M46.5 33.5C47.3284 33.5 48 32.8284 48 32C48 31.1716 47.3284 30.5 46.5 30.5V32V33.5ZM18.9393 30.9393C18.3536 31.5251 18.3536 32.4749 18.9393 33.0607L28.4853 42.6066C29.0711 43.1924 30.0208 43.1924 30.6066 42.6066C31.1924 42.0208 31.1924 41.0711 30.6066 40.4853L22.1213 32L30.6066 23.5147C31.1924 22.9289 31.1924 21.9792 30.6066 21.3934C30.0208 20.8076 29.0711 20.8076 28.4853 21.3934L18.9393 30.9393ZM46.5 32V30.5H37V32V33.5H46.5V32ZM37 32V30.5H20V32V33.5H37V32Z" fill="#808080" />
    </svg>
    <symbol width="64" height="64" viewBox="0 0 64 64" fill="none" xmlns="http://www.w3.org/2000/svg" id="slider-arrow-2">
      <rect x="2" y="2" width="60" height="60" rx="7" fill="#AAAAAA" fill-opacity="0.05" />
      <rect x="2" y="2" width="60" height="60" rx="7" stroke="#808080" stroke-width="4" />
      <path d="M19 30.5C18.1716 30.5 17.5 31.1716 17.5 32C17.5 32.8284 18.1716 33.5 19 33.5V32V30.5ZM46.5607 33.0607C47.1464 32.4749 47.1464 31.5251 46.5607 30.9393L37.0147 21.3934C36.4289 20.8076 35.4792 20.8076 34.8934 21.3934C34.3076 21.9792 34.3076 22.9289 34.8934 23.5147L43.3787 32L34.8934 40.4853C34.3076 41.0711 34.3076 42.0208 34.8934 42.6066C35.4792 43.1924 36.4289 43.1924 37.0147 42.6066L46.5607 33.0607ZM19 32V33.5H28.5V32V30.5H19V32ZM28.5 32V33.5H45.5V32V30.5H28.5V32Z" fill="#808080" />
    </symbol>
  </defs>
</svg>